<svg width="25" height="25" viewBox="0 0 25 25" fill="none" xmlns="http://www.w3.org/2000/svg">
<path d="M9.94793 15.7812L18.7761 6.95313C18.9844 6.74479 19.2274 6.64062 19.5052 6.64062C19.783 6.64062 20.0261 6.74479 20.2344 6.95313C20.4427 7.16146 20.5469 7.40903 20.5469 7.69583C20.5469 7.98264 20.4427 8.22986 20.2344 8.4375L10.6771 18.0208C10.4688 18.2292 10.2257 18.3333 9.94793 18.3333C9.67015 18.3333 9.4271 18.2292 9.21877 18.0208L4.7396 13.5417C4.53126 13.3333 4.43126 13.0861 4.4396 12.8C4.44793 12.5139 4.55661 12.2663 4.76564 12.0573C4.97467 11.8483 5.22224 11.7441 5.50835 11.7448C5.79446 11.7455 6.04168 11.8497 6.25001 12.0573L9.94793 15.7812Z" fill="black"/>
</svg>
