<svg width="111" height="111" viewBox="0 0 111 111" fill="none" xmlns="http://www.w3.org/2000/svg">
<circle cx="55.1061" cy="55.1061" r="43.0829" fill="#F8F9FA"/>
<path fill-rule="evenodd" clip-rule="evenodd" d="M55.1061 98.6124C66.6446 98.6124 77.7106 94.0287 85.8696 85.8697C94.0286 77.7107 98.6123 66.6447 98.6123 55.1061C98.6123 43.5675 94.0286 32.5015 85.8696 24.3425C77.7106 16.1835 66.6446 11.5999 55.1061 11.5999C43.5675 11.5999 32.5015 16.1835 24.3425 24.3425C16.1835 32.5015 11.5998 43.5675 11.5998 55.1061C11.5998 66.6447 16.1835 77.7107 24.3425 85.8697C32.5015 94.0287 43.5675 98.6124 55.1061 98.6124ZM72.538 22.4833C73.138 23.3497 73.7044 24.2467 74.2371 25.1743C76.5974 29.2751 78.4619 34.1291 79.6972 39.4835C81.3932 39.9274 82.9928 40.4142 84.496 40.9438C86.5625 41.6786 88.4912 42.5052 90.2041 43.4328C87.2043 34.4512 80.8841 26.9564 72.538 22.4833ZM90.9664 64.1802C89.0652 65.2824 86.8793 66.2513 84.4914 67.0917C83.1352 67.5723 81.6993 68.0162 80.1839 68.4234C78.9762 74.6917 76.9327 80.3585 74.2371 85.0379C73.7098 85.959 73.1429 86.8569 72.538 87.7289C77.0774 85.2986 81.0606 81.949 84.2335 77.8937C87.4064 73.8384 89.6995 69.171 90.9664 64.1802ZM37.6742 87.7243C37.0692 86.8523 36.5023 85.9544 35.9751 85.0333C33.2795 80.3493 31.236 74.6871 30.0282 68.4188C28.5128 68.0116 27.0754 67.5677 25.7162 67.0871C23.4759 66.3157 21.3115 65.3396 19.2504 64.1711C20.5167 69.1614 22.8091 73.8332 25.9812 77.8885C29.1533 81.9437 33.1356 85.2935 37.6742 87.7243ZM20.0081 43.4328C21.8455 42.4608 23.7536 41.6288 25.7162 40.9438C27.2224 40.4142 28.8235 39.9274 30.5196 39.4835C31.7549 34.1291 33.6147 29.2751 35.9751 25.1743C36.5108 24.2467 37.0772 23.3497 37.6742 22.4833C29.328 26.9564 23.0079 34.4512 20.0081 43.4328ZM68.5841 28.4348C70.1684 31.1855 71.5231 34.4046 72.5655 37.9865C68.1662 37.2563 63.3812 36.8017 58.3711 36.6593V18.8739C62.0081 20.0632 65.59 23.2364 68.5841 28.4348ZM74.1039 44.8931C68.915 43.8967 63.6531 43.3284 58.3711 43.194V64.8461C63.761 64.7065 69.1297 64.1151 74.4208 63.0781C74.7391 60.5126 74.8999 57.8553 74.9029 55.1061C74.9029 51.5518 74.6228 48.126 74.1039 44.8931ZM51.8456 18.8739V36.6593C46.8356 36.7971 42.0505 37.2563 37.6512 37.9819C38.6936 34.4046 40.0437 31.1855 41.628 28.4302C44.6221 23.2364 48.2086 20.0586 51.8456 18.8739ZM51.8456 43.194C46.562 43.3297 41.2985 43.8995 36.1083 44.8977C35.1596 50.9153 35.053 57.0357 35.7914 63.0827C40.5397 64.0471 45.986 64.6808 51.8456 64.8507V43.194ZM27.8929 47.1019C28.3429 46.9397 28.8052 46.7836 29.2797 46.6335C28.7022 51.5143 28.6252 56.4413 29.0501 61.3377C28.6552 61.2091 28.2694 61.0775 27.8929 60.9428C24.4717 59.735 21.9368 58.3711 20.3158 57.021C18.681 55.6572 18.3411 54.6285 18.3411 54.0224C18.3411 53.4208 18.681 52.3921 20.3158 51.0237C21.9368 49.6736 24.4717 48.3097 27.8929 47.1019ZM41.628 81.782C39.7131 78.4619 38.138 74.4529 37.0405 69.9572C41.6051 70.7379 46.6014 71.2338 51.841 71.3808V91.3429C48.2086 90.1536 44.6221 86.9804 41.628 81.782ZM58.3711 91.3429V71.3808C63.332 71.2545 68.2777 70.7788 73.1717 69.9572C72.0696 74.4529 70.499 78.4619 68.5795 81.782C65.59 86.9804 62.0081 90.1536 58.3711 91.3429ZM81.4192 55.1061C81.4192 57.2185 81.1575 61.3331 81.1575 61.3331C81.1575 61.3331 81.9381 61.0729 82.3147 60.9382C85.7359 59.7304 89.8918 57.0164 89.8918 57.0164C89.8918 57.0164 91.8664 54.6239 91.8664 54.0178C91.8664 53.4162 89.8918 51.0191 89.8918 51.0191C89.8918 51.0191 85.7359 48.3051 82.3147 47.0974C81.8549 46.9339 80.9279 46.629 80.9279 46.629L81.4238 55.1061" fill="#D1AC4D"/>
</svg>
