<svg width="80" height="80" viewBox="0 0 80 80" fill="none" xmlns="http://www.w3.org/2000/svg">
<path d="M63 24C63 21.1109 62.4051 18.2501 61.2492 15.581C60.0934 12.9118 58.3992 10.4865 56.2635 8.44365C54.1277 6.40076 51.5922 4.78025 48.8017 3.67465C46.0112 2.56905 43.0204 2 40 2C36.9796 2 33.9888 2.56905 31.1983 3.67465C28.4078 4.78025 25.8723 6.40076 23.7365 8.44365C21.6008 10.4865 19.9066 12.9118 18.7508 15.581C17.5949 18.2501 17 21.1109 17 24L40 24H63Z" fill="#F8F9FA"/>
<path fill-rule="evenodd" clip-rule="evenodd" d="M39.9367 2.07666C42.0132 2.07748 44.0804 2.35549 46.0833 2.90333V14.9967C46.0833 15.661 46.3473 16.2982 46.817 16.768C47.2868 17.2377 47.924 17.5017 48.5883 17.5017C49.2527 17.5017 49.8899 17.2377 50.3596 16.768C50.8294 16.2982 51.0933 15.661 51.0933 14.9967V4.92333C54.6072 6.84288 57.5663 9.63678 59.6843 13.0348C61.8022 16.4328 63.0075 20.3198 63.1833 24.32H16.69C16.8659 20.3198 18.0711 16.4328 20.1891 13.0348C22.3071 9.63678 25.2661 6.84288 28.78 4.92333V15C28.78 15.6644 29.0439 16.3015 29.5137 16.7713C29.9835 17.2411 30.6206 17.505 31.285 17.505C31.9494 17.505 32.5865 17.2411 33.0563 16.7713C33.5261 16.3015 33.79 15.6644 33.79 15V2.89999C35.7921 2.35357 37.8581 2.07669 39.9333 2.07666M63.15 29.33H65.89C66.5539 29.33 67.1907 29.5937 67.6601 30.0632C68.1296 30.5327 68.3933 31.1694 68.3933 31.8333C68.3933 32.4973 68.1296 33.134 67.6601 33.6035C67.1907 34.0729 66.5539 34.3367 65.89 34.3367H60.6L58.7867 38.7967C58.6004 39.2595 58.28 39.656 57.8665 39.9352C57.4531 40.2144 56.9656 40.3635 56.4667 40.3633H23.4033C22.9044 40.3635 22.4169 40.2144 22.0035 39.9352C21.59 39.656 21.2696 39.2595 21.0833 38.7967L19.2733 34.3367H13.98C13.3161 34.3367 12.6793 34.0729 12.2099 33.6035C11.7404 33.134 11.4767 32.4973 11.4767 31.8333C11.4767 31.1694 11.7404 30.5327 12.2099 30.0632C12.6793 29.5937 13.3161 29.33 13.98 29.33H63.15ZM11.4433 77.9233L4.35 68.9833C2.07 66.1589 0.818148 62.6431 0.799999 59.0133V40.6667C0.782227 39.9566 0.906732 39.2502 1.16618 38.589C1.42563 37.9278 1.81478 37.3252 2.3107 36.8167C2.80662 36.3082 3.39929 35.9041 4.05379 35.6282C4.70829 35.3523 5.41139 35.2101 6.12167 35.2101C6.83195 35.2101 7.53505 35.3523 8.18955 35.6282C8.84405 35.9041 9.43671 36.3082 9.93263 36.8167C10.4286 37.3252 10.8177 37.9278 11.0771 38.589C11.3366 39.2502 11.4611 39.9566 11.4433 40.6667L11.4833 45.7333L11.3 45.8433C9.66038 46.9472 8.48878 48.6203 8.01214 50.5386C7.5355 52.4568 7.78774 54.4837 8.72 56.2267L14.08 65.0267C14.4252 65.5942 14.9818 66.0014 15.6272 66.1586C16.2726 66.3158 16.9541 66.2102 17.5217 65.865C18.0892 65.5198 18.4964 64.9632 18.6536 64.3178C18.8108 63.6723 18.7052 62.9909 18.36 62.4233L13.06 53.7233C12.7459 53.0564 12.6914 52.2964 12.907 51.5914C13.1227 50.8864 13.5932 50.287 14.2267 49.91C15.0355 49.5229 15.9335 49.3604 16.8266 49.4396C17.7198 49.5188 18.5752 49.8367 19.3033 50.36C19.8549 50.7565 20.3199 51.2612 20.67 51.8433L24.7167 57.9467C26.48 60.5567 27.4167 63.6333 27.4133 66.78V77.9233H11.4433ZM68.5533 77.9233L75.6533 68.9833C77.9321 66.1584 79.1828 62.6427 79.2 59.0133V40.6667C79.2 39.2548 78.6392 37.9008 77.6408 36.9025C76.6425 35.9042 75.2885 35.3433 73.8767 35.3433C72.4648 35.3433 71.1108 35.9042 70.1125 36.9025C69.1142 37.9008 68.5533 39.2548 68.5533 40.6667L68.5167 45.7333C68.5767 45.7667 68.6378 45.8033 68.7 45.8433C70.3396 46.9472 71.5112 48.6203 71.9879 50.5386C72.4645 52.4568 72.2123 54.4837 71.28 56.2267L65.92 65.0267C65.7491 65.3077 65.5244 65.5523 65.259 65.7465C64.9935 65.9407 64.6924 66.0808 64.3728 66.1586C64.0532 66.2365 63.7214 66.2506 63.3964 66.2002C63.0713 66.1498 62.7594 66.0359 62.4783 65.865C62.1973 65.6941 61.9527 65.4694 61.7585 65.204C61.5643 64.9385 61.4242 64.6374 61.3464 64.3178C61.2685 63.9982 61.2544 63.6664 61.3048 63.3414C61.3552 63.0163 61.4691 62.7044 61.64 62.4233L66.94 53.7233C67.2541 53.0564 67.3086 52.2964 67.093 51.5914C66.8773 50.8864 66.4068 50.287 65.7733 49.91C64.6513 49.373 63.3694 49.2735 62.1779 49.631C60.9865 49.9885 59.9711 50.7773 59.33 51.8433L55.2833 57.9467C53.5172 60.5532 52.5775 63.6315 52.5867 66.78V77.9233H68.5533Z" fill="#D1AC4D"/>
</svg>
