<svg width="70" height="80" viewBox="0 0 70 80" fill="none" xmlns="http://www.w3.org/2000/svg">
<g clip-path="url(#clip0_18_124)">
<path d="M65.9479 77.6898C65.4903 69.739 62.038 62.2566 56.2858 56.7486C50.5337 51.2406 42.9087 48.1158 34.9455 48.0032C26.9823 47.8905 19.272 50.7984 13.3664 56.1415C7.46072 61.4846 3.79818 68.8664 3.11583 76.8011L34.5 79.5L65.9479 77.6898Z" fill="#F8F9FA"/>
<path d="M35 38.75C32.5377 38.75 30.0995 38.265 27.8247 37.3227C25.5498 36.3805 23.4828 34.9994 21.7417 33.2583C20.0006 31.5172 18.6195 29.4502 17.6773 27.1753C16.735 24.9005 16.25 22.4623 16.25 20C16.25 17.5377 16.735 15.0995 17.6773 12.8247C18.6195 10.5498 20.0006 8.48285 21.7417 6.74175C23.4828 5.00065 25.5498 3.61953 27.8247 2.67726C30.0995 1.73498 32.5377 1.25 35 1.25C37.4623 1.25 39.9005 1.73498 42.1753 2.67726C44.4502 3.61953 46.5172 5.00065 48.2583 6.74175C49.9994 8.48285 51.3805 10.5498 52.3227 12.8247C53.265 15.0995 53.75 17.5377 53.75 20C53.75 22.4623 53.265 24.9005 52.3227 27.1753C51.3805 29.4502 49.9994 31.5172 48.2583 33.2583C46.5172 34.9994 44.4502 36.3805 42.1753 37.3227C39.9005 38.265 37.4623 38.75 35 38.75ZM30.2344 47.5H39.7656C41.2812 47.5 42.5 48.7188 42.5 50.2344C42.5 50.8906 42.2656 51.5156 41.8438 52.0156L37.5625 57.0156L42.4062 75H42.5L47.9062 53.3594C48.25 52 49.6406 51.1719 50.9531 51.6719C60.625 55.3594 67.5 64.7344 67.5 75.7031C67.5 78.0625 65.5781 79.9844 63.2188 79.9844L6.78125 80C4.42188 80 2.5 78.0781 2.5 75.7188C2.5 64.75 9.375 55.375 19.0469 51.6875C20.3594 51.1875 21.75 52.0156 22.0938 53.375L27.5 75.0156H27.5938L32.4375 57.0312L28.1562 52.0312C27.7344 51.5312 27.5 50.9062 27.5 50.25C27.5 48.7344 28.7188 47.5156 30.2344 47.5156V47.5Z" fill="#D1AC4D"/>
</g>
<defs>
<clipPath id="clip0_18_124">
<rect width="70" height="80" fill="white"/>
</clipPath>
</defs>
</svg>
