<svg width="78" height="78" viewBox="0 0 78 78" fill="none" xmlns="http://www.w3.org/2000/svg">
<circle cx="38.5" cy="39.5" r="31.5" fill="#F8F9FA"/>
<path d="M39 6.5C41.912 6.5 44.733 6.8835 47.4175 7.60175L40.508 14.508C39.9838 15.0343 39.5215 15.6187 39.13 16.25H39C34.5005 16.25 30.102 17.5843 26.3608 20.0841C22.6196 22.5839 19.7036 26.1369 17.9817 30.294C16.2598 34.451 15.8093 39.0252 16.6871 43.4383C17.5649 47.8514 19.7317 51.905 22.9133 55.0867C26.095 58.2683 30.1486 60.4351 34.5617 61.3129C38.9748 62.1907 43.549 61.7402 47.7061 60.0183C51.8631 58.2964 55.4161 55.3804 57.9159 51.6392C60.4157 47.898 61.75 43.4995 61.75 39V38.87C62.3783 38.48 62.9579 38.0196 63.4888 37.4888L70.3982 30.5825C71.1165 33.267 71.5 36.088 71.5 39C71.5 56.9497 56.9497 71.5 39 71.5C21.0503 71.5 6.5 56.9497 6.5 39C6.5 21.0503 21.0503 6.5 39 6.5ZM37.6545 22.8053C37.6545 25.571 37.518 28.3758 37.6675 31.1383L35.9125 32.8933C35.3088 33.497 34.8299 34.2137 34.5032 35.0024C34.1765 35.7912 34.0083 36.6366 34.0083 37.4904C34.0083 38.3441 34.1765 39.1895 34.5032 39.9783C34.8299 40.7671 35.3088 41.4838 35.9125 42.0875C36.5162 42.6912 37.2329 43.1701 38.0217 43.4968C38.8105 43.8235 39.6559 43.9917 40.5096 43.9917C41.3634 43.9917 42.2088 43.8235 42.9976 43.4968C43.7863 43.1701 44.503 42.6912 45.1068 42.0875L46.8617 40.3325C49.6242 40.482 52.4258 40.3455 55.1947 40.3455C54.938 43.4341 53.8034 46.3849 51.9247 48.8498C50.046 51.3147 47.5016 53.191 44.5915 54.2573C41.6815 55.3236 38.5272 55.5355 35.5007 54.868C32.4741 54.2005 29.7016 52.6814 27.5101 50.4899C25.3186 48.2984 23.7995 45.5259 23.132 42.4994C22.4645 39.4728 22.6764 36.3185 23.7427 33.4085C24.809 30.4984 26.6853 27.954 29.1502 26.0753C31.6151 24.1966 34.5659 23.062 37.6545 22.8053ZM60.138 6.91275C60.7312 7.15871 61.2383 7.5749 61.5952 8.10878C61.952 8.64267 62.1428 9.27031 62.1432 9.9125V15.86H68.0875C68.7302 15.8601 69.3584 16.0508 69.8927 16.4079C70.4271 16.7651 70.8435 17.2726 71.0895 17.8664C71.3354 18.4601 71.3997 19.1135 71.2744 19.7439C71.1491 20.3742 70.8396 20.9532 70.3853 21.4077L58.89 32.89C58.2807 33.4995 57.4541 33.8421 56.5923 33.8423H48.75L42.809 39.7865C42.1992 40.3963 41.3721 40.7389 40.5096 40.7389C39.6472 40.7389 38.8201 40.3963 38.2103 39.7865C37.6004 39.1767 37.2578 38.3496 37.2578 37.4871C37.2578 36.6247 37.6004 35.7976 38.2103 35.1877L44.1545 29.25V21.4045C44.1542 20.9772 44.2381 20.554 44.4015 20.1592C44.5649 19.7643 44.8046 19.4056 45.1068 19.1035L56.5955 7.61475C57.05 7.15997 57.6292 6.85021 58.2598 6.72468C58.8903 6.59914 59.544 6.66346 60.138 6.9095" fill="#D1AC4D"/>
</svg>
